# xmcd
#
# Track frame offsets: 
#        150
#        14982
#        40754
#        61956
#        82246
#        105928
#        124673
#        140356
#        157586
#        173053
#        196409
#        217301
#        237211
#        248753
#        263823
#
# Disc length: 3766 seconds
#
# Revision: 3
# Processed by: cddbd v1.5.2PL0 Copyright (c) Steve Scherf et al.
# Submitted via: ExactAudioCopy v0.99pb4
#
DISCID=cd0eb40f
DTITLE=Los Tres - Los Tres Unplugged
DYEAR=1900
DGENRE=
TTITLE0=Sudapara
TTITLE1=La Espada y La Pared
TTITLE2=Un Amor Violento
TTITLE3=Gato Por Liebre
TTITLE4=Pajaros De Fuego
TTITLE5=Me Rompio El Corazon
TTITLE6=Dejate Caer
TTITLE7=Traje Desastre
TTITLE8=Tirate
TTITLE9=Te Desheredo
TTITLE10=He Barrido El Sol
TTITLE11=La Primera Vez
TTITLE12=El Arrepentido
TTITLE13=La Vida Que Yo He Pasado
TTITLE14=Quien Es La Que Viene Alli
EXTD=
EXTT0=
EXTT1=
EXTT2=
EXTT3=
EXTT4=
EXTT5=
EXTT6=
EXTT7=
EXTT8=
EXTT9=
EXTT10=
EXTT11=
EXTT12=
EXTT13=
EXTT14=
PLAYORDER=
